HIERARCHY
ROOT Hips
{
	OFFSET 0.000000 100.481300 0.000000
	CHANNELS 6 Xposition Yposition Zposition Xrotation Yrotation Zrotation 
	JOINT Spine
	{
		OFFSET -0.279200 12.230698 -2.892100
		CHANNELS 3 Xrotation Yrotation Zrotation
		JOINT Spine1
		{
			OFFSET -0.232667 10.192268 -1.242267
			CHANNELS 3 Xrotation Yrotation Zrotation
			JOINT Spine1_split
			{
				OFFSET -0.232667 10.192268 -1.242267
				CHANNELS 3 Xrotation Yrotation Zrotation
				JOINT Spine2
				{
					OFFSET -0.232667 10.192268 -1.242267
					CHANNELS 3 Xrotation Yrotation Zrotation
					JOINT Neck
					{
						OFFSET -0.418800 17.814194 8.416900
						CHANNELS 3 Xrotation Yrotation Zrotation
						JOINT Head
						{
							OFFSET 0.000000 7.031097 3.806800
							CHANNELS 3 Xrotation Yrotation Zrotation
							JOINT HeadTop_End
							{
								OFFSET 0.000000 24.646606 12.978600
								CHANNELS 3 Xrotation Yrotation Zrotation
								End Site
								{
									OFFSET 0.000000 0.000000 0.000000
								}
							}
						}
					}
					JOINT LeftShoulder
					{
						OFFSET 8.476499 7.247704 -3.868750
						CHANNELS 3 Xrotation Yrotation Zrotation
						JOINT LeftShoulder_split
						{
							OFFSET 8.476499 7.247704 -3.868750
							CHANNELS 3 Xrotation Yrotation Zrotation
							JOINT LeftArm
							{
								OFFSET 9.308998 -2.777710 0.208600
								CHANNELS 3 Xrotation Yrotation Zrotation
								JOINT LeftForeArm
								{
									OFFSET 29.972298 0.000000 0.000000
									CHANNELS 3 Xrotation Yrotation Zrotation
									JOINT LeftHand
									{
										OFFSET 26.026505 0.000000 0.000000
										CHANNELS 3 Xrotation Yrotation Zrotation
										JOINT LeftHandThumb1
										{
											OFFSET 12.240501 -7.147949 9.207150
											CHANNELS 3 Xrotation Yrotation Zrotation
											JOINT LeftHandThumb2
											{
												OFFSET 4.138618 -2.389435 2.389433
												CHANNELS 3 Xrotation Yrotation Zrotation
												JOINT LeftHandThumb3
												{
													OFFSET 2.726913 -1.574387 1.574386
													CHANNELS 3 Xrotation Yrotation Zrotation
													JOINT LeftHandThumb4
													{
														OFFSET 3.941010 -2.275345 2.275342
														CHANNELS 3 Xrotation Yrotation Zrotation
														End Site
														{
															OFFSET 0.000000 0.000000 0.000000
														}
													}
												}
											}
										}
										JOINT LeftHandIndex1
										{
											OFFSET 24.424698 -1.985611 5.953459
											CHANNELS 3 Xrotation Yrotation Zrotation
											JOINT LeftHandIndex2
											{
												OFFSET 6.426697 0.000000 0.000000
												CHANNELS 3 Xrotation Yrotation Zrotation
												JOINT LeftHandIndex3
												{
													OFFSET 5.337898 0.000000 0.000000
													CHANNELS 3 Xrotation Yrotation Zrotation
													JOINT LeftHandIndex4
													{
														OFFSET 4.409401 0.000000 0.000000
														CHANNELS 3 Xrotation Yrotation Zrotation
														End Site
														{
															OFFSET 0.000000 0.000000 0.000000
														}
													}
												}
											}
										}
										JOINT LeftHandMiddle1
										{
											OFFSET 23.810104 0.000000 0.000000
											CHANNELS 3 Xrotation Yrotation Zrotation
											JOINT LeftHandMiddle2
											{
												OFFSET 7.176498 0.000000 0.000000
												CHANNELS 3 Xrotation Yrotation Zrotation
												JOINT LeftHandMiddle3
												{
													OFFSET 6.774902 0.000000 0.000000
													CHANNELS 3 Xrotation Yrotation Zrotation
													JOINT LeftHandMiddle4
													{
														OFFSET 5.403328 0.000000 0.000000
														CHANNELS 3 Xrotation Yrotation Zrotation
														End Site
														{
															OFFSET 0.000000 0.000000 0.000000
														}
													}
												}
											}
										}
										JOINT LeftHandRing1
										{
											OFFSET 22.908401 -0.839279 -6.020567
											CHANNELS 3 Xrotation Yrotation Zrotation
											JOINT LeftHandRing2
											{
												OFFSET 6.337502 0.000000 0.000000
												CHANNELS 3 Xrotation Yrotation Zrotation
												JOINT LeftHandRing3
												{
													OFFSET 5.779297 0.000000 0.000000
													CHANNELS 3 Xrotation Yrotation Zrotation
													JOINT LeftHandRing4
													{
														OFFSET 4.965698 0.000000 0.000000
														CHANNELS 3 Xrotation Yrotation Zrotation
														End Site
														{
															OFFSET 0.000000 0.000000 0.000000
														}
													}
												}
											}
										}
										JOINT LeftHandPinky1
										{
											OFFSET 20.037003 -1.530319 -10.950146
											CHANNELS 3 Xrotation Yrotation Zrotation
											JOINT LeftHandPinky2
											{
												OFFSET 5.254700 0.000000 0.000000
												CHANNELS 3 Xrotation Yrotation Zrotation
												JOINT LeftHandPinky3
												{
													OFFSET 4.810204 0.000000 0.000000
													CHANNELS 3 Xrotation Yrotation Zrotation
													JOINT LeftHandPinky4
													{
														OFFSET 3.647202 0.000000 0.000000
														CHANNELS 3 Xrotation Yrotation Zrotation
														End Site
														{
															OFFSET 0.000000 0.000000 0.000000
														}
													}
												}
											}
										}
									}
								}
							}
						}
					}
					JOINT RightShoulder
					{
						OFFSET -7.570500 7.247704 -3.868750
						CHANNELS 3 Xrotation Yrotation Zrotation
						JOINT RightShoulder_split
						{
							OFFSET -7.570500 7.247704 -3.868750
							CHANNELS 3 Xrotation Yrotation Zrotation
							JOINT RightArm
							{
								OFFSET -9.308998 -2.777710 0.208500
								CHANNELS 3 Xrotation Yrotation Zrotation
								JOINT RightForeArm
								{
									OFFSET -29.972300 0.000000 0.000000
									CHANNELS 3 Xrotation Yrotation Zrotation
									JOINT RightHand
									{
										OFFSET -26.026505 0.000000 0.000000
										CHANNELS 3 Xrotation Yrotation Zrotation
										JOINT RightHandThumb1
										{
											OFFSET -12.240601 -7.148026 9.207092
											CHANNELS 3 Xrotation Yrotation Zrotation
											JOINT RightHandThumb2
											{
												OFFSET -4.138618 -2.389435 2.389433
												CHANNELS 3 Xrotation Yrotation Zrotation
												JOINT RightHandThumb3
												{
													OFFSET -2.726974 -1.574417 1.574421
													CHANNELS 3 Xrotation Yrotation Zrotation
													JOINT RightHandThumb4
													{
														OFFSET -3.941010 -2.275345 2.275343
														CHANNELS 3 Xrotation Yrotation Zrotation
														End Site
														{
															OFFSET 0.000000 0.000000 0.000000
														}
													}
												}
											}
										}
										JOINT RightHandIndex1
										{
											OFFSET -24.424698 -1.985657 5.953444
											CHANNELS 3 Xrotation Yrotation Zrotation
											JOINT RightHandIndex2
											{
												OFFSET -6.426697 0.000000 0.000000
												CHANNELS 3 Xrotation Yrotation Zrotation
												JOINT RightHandIndex3
												{
													OFFSET -5.337898 0.000000 0.000000
													CHANNELS 3 Xrotation Yrotation Zrotation
													JOINT RightHandIndex4
													{
														OFFSET -4.409401 0.000000 0.000000
														CHANNELS 3 Xrotation Yrotation Zrotation
														End Site
														{
															OFFSET 0.000000 0.000000 0.000000
														}
													}
												}
											}
										}
										JOINT RightHandMiddle1
										{
											OFFSET -23.810097 0.000000 0.000000
											CHANNELS 3 Xrotation Yrotation Zrotation
											JOINT RightHandMiddle2
											{
												OFFSET -7.176498 0.000000 0.000000
												CHANNELS 3 Xrotation Yrotation Zrotation
												JOINT RightHandMiddle3
												{
													OFFSET -6.774902 0.000000 0.000000
													CHANNELS 3 Xrotation Yrotation Zrotation
													JOINT RightHandMiddle4
													{
														OFFSET -5.403328 0.000000 0.000000
														CHANNELS 3 Xrotation Yrotation Zrotation
														End Site
														{
															OFFSET 0.000000 0.000000 0.000000
														}
													}
												}
											}
										}
										JOINT RightHandRing1
										{
											OFFSET -22.908302 -0.839325 -6.020576
											CHANNELS 3 Xrotation Yrotation Zrotation
											JOINT RightHandRing2
											{
												OFFSET -6.337502 0.000000 0.000000
												CHANNELS 3 Xrotation Yrotation Zrotation
												JOINT RightHandRing3
												{
													OFFSET -5.779297 0.000000 0.000000
													CHANNELS 3 Xrotation Yrotation Zrotation
													JOINT RightHandRing4
													{
														OFFSET -4.965698 0.000000 0.000000
														CHANNELS 3 Xrotation Yrotation Zrotation
														End Site
														{
															OFFSET 0.000000 0.000000 0.000000
														}
													}
												}
											}
										}
										JOINT RightHandPinky1
										{
											OFFSET -20.037003 -1.530334 -10.950259
											CHANNELS 3 Xrotation Yrotation Zrotation
											JOINT RightHandPinky2
											{
												OFFSET -5.254700 0.000000 0.000000
												CHANNELS 3 Xrotation Yrotation Zrotation
												JOINT RightHandPinky3
												{
													OFFSET -4.810204 0.000000 0.000000
													CHANNELS 3 Xrotation Yrotation Zrotation
													JOINT RightHandPinky4
													{
														OFFSET -3.647202 0.000000 0.000000
														CHANNELS 3 Xrotation Yrotation Zrotation
														End Site
														{
															OFFSET 0.000000 0.000000 0.000000
														}
													}
												}
											}
										}
									}
								}
							}
						}
					}
				}
			}
		}
	}
	JOINT LeftUpLeg
	{
		OFFSET 15.427100 -6.655098 0.678600
		CHANNELS 3 Xrotation Yrotation Zrotation
		JOINT LeftLeg
		{
			OFFSET 4.081073 -39.591068 13.024000
			CHANNELS 3 Xrotation Yrotation Zrotation
			JOINT LeftFoot
			{
				OFFSET -4.081074 -37.707932 -15.979700
				CHANNELS 3 Xrotation Yrotation Zrotation
				JOINT LeftToeBase
				{
					OFFSET 5.346399 -15.068900 20.645000
					CHANNELS 3 Xrotation Yrotation Zrotation
					JOINT LeftToe_End
					{
						OFFSET 2.754700 0.931300 11.300900
						CHANNELS 3 Xrotation Yrotation Zrotation
						End Site
						{
							OFFSET 0.000000 0.000000 0.000000
						}
					}
				}
			}
		}
	}
	JOINT RightUpLeg
	{
		OFFSET -15.569500 -6.655098 0.678600
		CHANNELS 3 Xrotation Yrotation Zrotation
		JOINT RightLeg
		{
			OFFSET -4.081825 -39.591045 13.023800
			CHANNELS 3 Xrotation Yrotation Zrotation
			JOINT RightFoot
			{
				OFFSET 4.081824 -37.707954 -15.979600
				CHANNELS 3 Xrotation Yrotation Zrotation
				JOINT RightToeBase
				{
					OFFSET -5.346400 -15.068900 20.645000
					CHANNELS 3 Xrotation Yrotation Zrotation
					JOINT RightToe_End
					{
						OFFSET -2.754700 0.931300 11.300900
						CHANNELS 3 Xrotation Yrotation Zrotation
						End Site
						{
							OFFSET 0.000000 0.000000 0.000000
						}
					}
				}
			}
		}
	}
}
MOTION
Frames: 4
Frame Time: 0.016667
-0.032502 96.429108 -1.103472 -0.317001 -0.851759 0.675922 0.600834 0.532850 0.325349 0.948881 0.543752 -0.036076 0.000000 0.000000 0.000000 0.949055 0.535715 -0.036774 1.759489 -1.272664 -0.666066 -4.887638 -8.012349 2.592187 -0.000000 -0.000001 -0.000000 0.691656 -2.499305 -11.191560 0.000000 0.000000 0.000000 5.273946 -17.247124 -62.895292 -0.000008 -21.850199 0.000004 -1.967778 -14.998020 7.080665 -0.666104 2.158562 4.837365 11.853348 25.414292 17.057501 -13.811978 3.541901 9.030645 -0.000000 0.000000 -0.000003 0.021814 -0.966734 -7.590990 0.267888 1.752976 -17.376531 0.057694 0.821042 -8.038823 0.000000 -0.000001 0.000003 -0.077462 2.661811 -15.698691 0.268777 1.755781 -17.405226 0.300509 1.853955 -18.413097 0.000003 0.000003 0.000001 0.137966 3.644565 -21.134842 0.386563 2.094652 -20.910455 0.283124 1.800880 -17.867589 -0.000001 -0.000000 0.000000 0.949908 5.544485 -27.129281 0.268792 1.755839 -17.405887 0.241901 1.667661 -16.505533 0.000002 0.000001 0.000001 0.450398 7.851257 13.847201 0.000000 0.000000 0.000000 5.786520 9.805978 61.054938 -0.000004 23.253207 0.000009 -0.662970 7.830452 -2.975890 -1.664519 -0.169092 -4.216940 12.708059 -29.838177 -16.127680 -15.551987 -3.555847 -12.703312 -0.000001 -0.000001 -0.000000 0.037628 1.264478 6.828382 0.213857 -1.396483 17.412946 0.046096 -0.654322 8.059131 -0.000003 0.000001 0.000000 -0.135877 -2.206372 14.998778 0.214466 -1.398406 17.437698 0.239792 -1.476598 18.447081 0.000002 -0.000001 -0.000001 0.031305 -3.078184 20.463797 0.308442 -1.668285 20.948516 0.225828 -1.434052 17.897099 -0.000005 0.000001 0.000001 0.775418 -4.872482 26.474307 0.214421 -1.398285 17.436037 0.192939 -1.327924 16.532266 -0.000003 0.000000 -0.000000 -7.523578 13.585272 7.612376 11.094205 -9.579876 0.494950 -4.292928 -0.075992 -6.416081 -0.641578 0.000002 0.000001 0.000000 0.000000 -0.000000 -6.203050 -9.990946 -12.602304 9.628021 6.402250 2.586144 -4.290070 -0.585185 7.722387 -0.000064 0.000003 -0.000002 -0.000000 0.000000 0.000000 
-0.032877 96.433701 -1.071516 -0.317005 -0.871192 0.675032 0.600827 0.532749 0.315325 0.948881 0.543752 -0.041389 0.000000 0.000000 0.000000 0.949055 0.535716 -0.036774 1.770465 -1.244366 -0.642449 -4.885036 -7.837788 2.577701 0.000000 -0.000000 -0.000000 0.691600 -2.499366 -11.192655 0.000000 0.000000 0.000000 5.373542 -17.224132 -62.870143 -0.000005 -21.977800 -0.000010 -2.049701 -15.016717 7.242957 -0.708391 2.148811 4.824269 11.885545 25.397643 16.959747 -13.809146 3.410576 9.038931 -0.000001 -0.000001 0.000000 0.004566 -0.960444 -7.844278 0.274105 1.772692 -17.578463 0.059491 0.833685 -8.163443 0.000001 -0.000000 0.000001 -0.083331 2.660492 -15.925197 0.276582 1.780500 -17.658313 0.306061 1.870499 -18.583541 0.000001 0.000000 0.000001 0.130346 3.636592 -21.401535 0.396274 2.119878 -21.174517 0.286965 1.812748 -17.989340 0.000003 -0.000000 -0.000001 0.949940 5.539166 -27.389806 0.277968 1.784784 -17.702477 0.249379 1.692677 -16.760492 0.000001 -0.000000 -0.000002 0.452104 7.851157 13.834698 0.000000 0.000000 0.000000 5.909145 9.840616 61.120201 -0.000003 23.315452 0.000007 -0.695384 7.878865 -3.018688 -1.689569 -0.129796 -4.285268 12.722686 -29.827306 -15.983409 -15.499919 -3.442696 -12.729426 -0.000001 0.000000 0.000003 0.037478 1.312008 6.928893 0.220919 -1.418763 17.699896 0.047304 -0.662775 8.163860 0.000003 -0.000000 0.000000 -0.145125 -2.185776 15.152133 0.220051 -1.416035 17.664788 0.241608 -1.482047 18.517869 0.000003 -0.000002 -0.000002 0.022663 -3.061571 20.607558 0.316086 -1.688112 21.209604 0.227096 -1.437985 17.947977 0.000001 -0.000002 -0.000001 0.769643 -4.857940 26.616685 0.219016 -1.412799 17.623141 0.194811 -1.334209 16.613050 0.000006 -0.000002 -0.000001 -7.488055 13.594660 7.612994 11.074163 -9.581490 0.494294 -4.307038 -0.057147 -6.418353 -0.645830 0.000002 0.000001 -0.000000 0.000000 -0.000000 -6.177388 -9.983471 -12.602275 9.605841 6.402602 2.580464 -4.293695 -0.585692 7.734240 0.000001 -0.000002 0.000001 0.000000 0.000000 -0.000000 
-0.034777 96.433983 -1.037879 -0.317006 -0.888445 0.675777 0.600824 0.536445 0.303991 0.948881 0.543752 -0.047614 0.000000 0.000000 0.000000 0.949055 0.535715 -0.042374 1.780576 -1.212659 -0.622516 -4.885158 -7.647346 2.553905 0.000000 0.000000 -0.000000 0.692010 -2.516156 -11.214497 0.000000 0.000000 0.000000 5.525727 -17.246013 -62.798849 -0.000001 -22.198149 -0.000026 -2.131733 -14.873352 7.452635 -0.830607 2.120658 4.786308 11.978252 25.349216 16.677331 -13.801775 3.030285 9.060986 -0.000000 0.000002 -0.000000 -0.041676 -0.942373 -8.576642 0.292452 1.829553 -18.162146 0.064849 0.870198 -8.523696 -0.000001 -0.000002 0.000000 -0.100884 2.656959 -16.579869 0.299772 1.851701 -18.389876 0.322360 1.918236 -19.076261 0.000002 0.000003 0.000001 0.107213 3.614043 -22.172278 0.424992 2.192519 -21.937825 0.298192 1.846981 -18.341291 0.000002 -0.000002 -0.000002 0.949217 5.524151 -28.142794 0.305286 1.868202 -18.559786 0.271599 1.764782 -17.497497 -0.000001 -0.000001 -0.000000 0.449467 7.849633 13.857039 0.000000 0.000000 0.000000 6.043053 9.889819 61.153778 0.000003 23.361527 -0.000023 -0.730128 7.851454 -3.040915 -1.761842 -0.016400 -4.482744 12.765034 -29.795908 -15.566331 -15.349725 -3.115520 -12.805209 -0.000000 0.000000 -0.000001 0.036048 1.449431 7.219401 0.241920 -1.482934 18.529415 0.050867 -0.687178 8.466599 -0.000002 -0.000002 -0.000002 -0.172597 -2.126496 15.595315 0.236547 -1.466868 18.321216 0.246934 -1.497836 18.722395 -0.000000 -0.000002 -0.000000 -0.002934 -3.013791 21.023058 0.338693 -1.745224 21.964234 0.230812 -1.449377 18.095066 0.000001 -0.000001 -0.000001 0.752416 -4.816136 27.028256 0.232552 -1.454704 18.163923 0.200276 -1.352412 16.846479 0.000001 -0.000000 0.000002 -7.453983 13.603469 7.612727 11.066020 -9.582604 0.493809 -4.331761 -0.042913 -6.418973 -0.655507 0.000002 0.000001 0.000000 -0.000000 -0.000000 -6.155743 -9.977091 -12.599191 9.603682 6.398315 2.574285 -4.312210 -0.585773 7.739680 -0.000036 -0.000000 -0.000004 -0.000000 -0.000000 0.000000 
-0.037024 96.423935 -1.004125 -0.317007 -0.899870 0.672828 0.602036 0.541710 0.295556 0.952789 0.543752 -0.056660 0.000000 0.000000 0.000000 0.952978 0.540084 -0.051263 1.792711 -1.175588 -0.617546 -4.910367 -7.452485 2.543739 -0.000000 -0.000001 0.000000 0.691128 -2.553943 -11.273601 0.000000 0.000000 0.000000 5.631552 -17.345950 -62.656932 -0.000005 -22.462026 -0.000014 -2.273015 -14.267533 7.402787 -1.025759 2.075842 4.725329 12.125240 25.271049 16.226631 -13.792508 2.420713 9.090429 0.000000 0.000001 0.000000 -0.116543 -0.912140 -9.746198 0.322948 1.919990 -19.094432 0.073882 0.928441 -9.099083 -0.000001 -0.000001 0.000000 -0.130698 2.652285 -17.625339 0.338686 1.964820 -19.558416 0.349204 1.994186 -19.863268 -0.000002 0.000001 0.000002 0.066873 3.579870 -23.403075 0.472874 2.307736 -23.157089 0.316586 1.901510 -18.903450 -0.000004 0.000005 0.000006 0.945487 5.501400 -29.345153 0.351510 2.000531 -19.929201 0.309045 1.879349 -18.674700 -0.000004 -0.000001 0.000001 0.446511 7.844591 13.940674 0.000000 0.000000 0.000000 6.222915 9.968892 61.098843 0.000003 23.471778 0.000011 -0.775160 7.617302 -2.904965 -1.876947 0.163945 -4.797937 12.832657 -29.745768 -14.900257 -15.110603 -2.592526 -12.927054 0.000000 -0.000000 0.000004 0.030673 1.669080 7.683173 0.277391 -1.584792 19.854368 0.056828 -0.726105 8.950161 -0.000000 -0.000000 0.000001 -0.218974 -2.032689 16.303136 0.264129 -1.547642 19.369679 0.255550 -1.523000 19.049083 -0.000001 0.000001 -0.000000 -0.045742 -2.938344 21.686628 0.376359 -1.835798 23.169602 0.236786 -1.467547 18.330005 0.000001 -0.000001 -0.000002 0.723234 -4.750159 27.685468 0.254979 -1.521347 19.027703 0.209173 -1.381434 17.219306 -0.000000 0.000001 0.000003 -7.437053 13.607630 7.620258 11.089810 -9.584084 0.493104 -4.372794 -0.035995 -6.412192 -0.662180 -0.000001 -0.000001 -0.000000 0.000000 -0.000000 -6.142248 -9.958836 -12.591420 9.634370 6.381220 2.559838 -4.350548 -0.593777 7.750500 0.000000 0.000002 0.000001 0.000000 0.000000 0.000000 
